<svg xmlns="http://www.w3.org/2000/svg" xmlns:xlink="http://www.w3.org/1999/xlink" width="1080" zoomAndPan="magnify" viewBox="0 0 810 809.999993" height="1080" preserveAspectRatio="xMidYMid meet" version="1.0"><defs><clipPath id="id1"><path d="M 435 41.667969 L 530 41.667969 L 530 371 L 435 371 Z M 435 41.667969 " clip-rule="nonzero"/></clipPath></defs><rect x="-81" width="972" fill="#ffffff" y="-80.999999" height="971.999992" fill-opacity="1"/><rect x="-81" width="972" fill="#ffffff" y="-80.999999" height="971.999992" fill-opacity="1"/><rect x="-81" width="972" fill="#ffffff" y="-80.999999" height="971.999992" fill-opacity="1"/><rect x="-81" width="972" fill="#ffffff" y="-80.999999" height="971.999992" fill-opacity="1"/><path fill="#e6e7e8" d="M 753.042969 475.953125 C 753.042969 476.546875 752.917969 477.132812 752.652344 477.726562 C 752.386719 478.320312 751.984375 478.90625 751.464844 479.492188 C 750.933594 480.085938 750.277344 480.671875 749.484375 481.257812 C 748.695312 481.835938 747.773438 482.417969 746.722656 482.996094 C 745.671875 483.574219 744.492188 484.152344 743.183594 484.730469 C 741.878906 485.300781 740.441406 485.871094 738.878906 486.4375 C 737.3125 487 735.628906 487.5625 733.816406 488.117188 C 732.003906 488.675781 730.0625 489.230469 728 489.777344 C 725.9375 490.320312 723.753906 490.859375 721.453125 491.398438 C 719.152344 491.925781 716.734375 492.457031 714.191406 492.976562 C 711.65625 493.5 709.003906 494.011719 706.234375 494.515625 C 703.46875 495.023438 700.585938 495.519531 697.59375 496.019531 C 694.601562 496.507812 691.503906 496.988281 688.296875 497.460938 C 685.089844 497.941406 681.773438 498.410156 678.367188 498.859375 C 674.949219 499.316406 671.425781 499.765625 667.816406 500.207031 C 664.199219 500.636719 660.484375 501.070312 656.679688 501.488281 C 652.871094 501.90625 648.972656 502.316406 644.984375 502.707031 C 640.988281 503.109375 636.914062 503.496094 632.75 503.863281 C 628.59375 504.242188 624.351562 504.601562 620.019531 504.953125 C 615.695312 505.308594 611.300781 505.652344 606.824219 505.980469 C 602.347656 506.300781 597.796875 506.625 593.175781 506.929688 C 588.554688 507.234375 583.871094 507.523438 579.121094 507.800781 C 574.371094 508.074219 569.566406 508.339844 564.699219 508.597656 C 559.835938 508.84375 554.910156 509.085938 549.9375 509.308594 C 544.960938 509.542969 539.941406 509.75 534.871094 509.953125 C 529.800781 510.152344 524.691406 510.335938 519.53125 510.503906 C 514.382812 510.683594 509.191406 510.835938 503.96875 510.980469 C 498.746094 511.125 493.5 511.25 488.214844 511.371094 C 482.933594 511.484375 477.632812 511.589844 472.304688 511.667969 C 466.976562 511.757812 461.636719 511.828125 456.277344 511.886719 C 450.917969 511.949219 445.550781 511.988281 440.167969 512.023438 C 434.792969 512.046875 429.410156 512.0625 424.027344 512.0625 C 418.644531 512.0625 413.261719 512.046875 407.886719 512.023438 C 402.503906 511.988281 397.136719 511.949219 391.777344 511.886719 C 386.417969 511.828125 381.074219 511.757812 375.75 511.667969 C 370.421875 511.589844 365.121094 511.484375 359.839844 511.371094 C 354.554688 511.25 349.308594 511.125 344.085938 510.980469 C 338.855469 510.835938 333.671875 510.683594 328.511719 510.503906 C 323.363281 510.335938 318.253906 510.152344 313.183594 509.953125 C 308.113281 509.75 303.089844 509.542969 298.117188 509.308594 C 293.144531 509.085938 288.21875 508.84375 283.355469 508.597656 C 278.488281 508.339844 273.671875 508.074219 268.933594 507.800781 C 264.183594 507.523438 259.496094 507.234375 254.878906 506.929688 C 250.257812 506.625 245.707031 506.300781 241.230469 505.980469 C 236.753906 505.652344 232.359375 505.308594 228.027344 504.953125 C 223.703125 504.601562 219.457031 504.242188 215.304688 503.863281 C 211.140625 503.496094 207.0625 503.109375 203.070312 502.707031 C 199.082031 502.316406 195.183594 501.90625 191.371094 501.488281 C 187.570312 501.070312 183.855469 500.636719 180.238281 500.207031 C 176.621094 499.765625 173.105469 499.316406 169.6875 498.859375 C 166.277344 498.410156 162.964844 497.941406 159.757812 497.460938 C 156.546875 496.988281 153.453125 496.507812 150.460938 496.019531 C 147.46875 495.519531 144.585938 495.023438 141.820312 494.515625 C 139.050781 494.011719 136.394531 493.5 133.859375 492.976562 C 131.316406 492.457031 128.902344 491.925781 126.601562 491.398438 C 124.296875 490.859375 122.117188 490.320312 120.054688 489.777344 C 117.992188 489.230469 116.050781 488.675781 114.238281 488.117188 C 112.425781 487.5625 110.742188 487 109.175781 486.4375 C 107.613281 485.871094 106.175781 485.300781 104.867188 484.730469 C 103.5625 484.152344 102.382812 483.574219 101.332031 482.996094 C 100.28125 482.417969 99.355469 481.835938 98.570312 481.257812 C 97.777344 480.671875 97.117188 480.085938 96.589844 479.492188 C 96.066406 478.90625 95.667969 478.320312 95.402344 477.726562 C 95.136719 477.132812 95.007812 476.546875 95.007812 475.953125 C 95.007812 475.367188 95.136719 474.773438 95.402344 474.179688 C 95.667969 473.59375 96.066406 473 96.589844 472.417969 C 97.117188 471.832031 97.777344 471.246094 98.570312 470.660156 C 99.355469 470.074219 100.28125 469.488281 101.332031 468.910156 C 102.382812 468.332031 103.5625 467.753906 104.867188 467.183594 C 106.175781 466.609375 107.613281 466.039062 109.175781 465.476562 C 110.742188 464.90625 112.425781 464.34375 114.238281 463.792969 C 116.050781 463.238281 117.992188 462.683594 120.054688 462.140625 C 122.117188 461.59375 124.296875 461.046875 126.601562 460.519531 C 128.902344 459.980469 131.316406 459.453125 133.859375 458.929688 C 136.394531 458.417969 139.050781 457.894531 141.820312 457.390625 C 144.585938 456.886719 147.46875 456.386719 150.460938 455.898438 C 153.453125 455.402344 156.546875 454.917969 159.757812 454.445312 C 162.964844 453.972656 166.277344 453.507812 169.6875 453.050781 C 173.105469 452.59375 176.621094 452.144531 180.238281 451.710938 C 183.855469 451.269531 187.570312 450.84375 191.371094 450.425781 C 195.183594 450.011719 199.082031 449.601562 203.070312 449.199219 C 207.0625 448.804688 211.140625 448.421875 215.304688 448.042969 C 219.457031 447.667969 223.703125 447.304688 228.027344 446.953125 C 232.359375 446.601562 236.753906 446.261719 241.230469 445.933594 C 245.707031 445.605469 250.257812 445.292969 254.878906 444.988281 C 259.496094 444.683594 264.183594 444.386719 268.933594 444.113281 C 273.671875 443.832031 278.488281 443.566406 283.355469 443.3125 C 288.21875 443.0625 293.144531 442.820312 298.117188 442.597656 C 303.089844 442.371094 308.113281 442.15625 313.183594 441.957031 C 318.253906 441.761719 323.363281 441.578125 328.511719 441.402344 C 333.671875 441.234375 338.855469 441.074219 344.085938 440.929688 C 349.308594 440.785156 354.554688 440.65625 359.839844 440.542969 C 365.121094 440.421875 370.421875 440.328125 375.75 440.238281 C 381.074219 440.152344 386.417969 440.078125 391.777344 440.023438 C 397.136719 439.964844 402.503906 439.917969 407.886719 439.894531 C 413.261719 439.863281 418.644531 439.84375 424.027344 439.84375 C 429.410156 439.84375 434.792969 439.863281 440.167969 439.894531 C 445.550781 439.917969 450.917969 439.964844 456.277344 440.023438 C 461.636719 440.078125 466.976562 440.152344 472.304688 440.238281 C 477.632812 440.328125 482.933594 440.421875 488.214844 440.542969 C 493.5 440.65625 498.746094 440.785156 503.96875 440.929688 C 509.191406 441.074219 514.382812 441.234375 519.53125 441.402344 C 524.691406 441.578125 529.800781 441.761719 534.871094 441.957031 C 539.941406 442.15625 544.960938 442.371094 549.9375 442.597656 C 554.910156 442.820312 559.835938 443.0625 564.699219 443.3125 C 569.566406 443.566406 574.371094 443.832031 579.121094 444.113281 C 583.871094 444.386719 588.554688 444.683594 593.175781 444.988281 C 597.796875 445.292969 602.347656 445.605469 606.824219 445.933594 C 611.300781 446.261719 615.695312 446.601562 620.019531 446.953125 C 624.351562 447.304688 628.59375 447.667969 632.75 448.042969 C 636.914062 448.421875 640.988281 448.804688 644.984375 449.199219 C 648.972656 449.601562 652.871094 450.011719 656.679688 450.425781 C 660.484375 450.84375 664.199219 451.269531 667.816406 451.710938 C 671.425781 452.144531 674.949219 452.59375 678.367188 453.050781 C 681.773438 453.507812 685.089844 453.972656 688.296875 454.445312 C 691.503906 454.917969 694.601562 455.402344 697.59375 455.898438 C 700.585938 456.386719 703.46875 456.886719 706.234375 457.390625 C 709.003906 457.894531 711.65625 458.417969 714.191406 458.929688 C 716.734375 459.453125 719.152344 459.980469 721.453125 460.519531 C 723.753906 461.046875 725.9375 461.59375 728 462.140625 C 730.0625 462.683594 732.003906 463.238281 733.816406 463.792969 C 735.628906 464.34375 737.3125 464.90625 738.878906 465.476562 C 740.441406 466.039062 741.878906 466.609375 743.183594 467.183594 C 744.492188 467.753906 745.671875 468.332031 746.722656 468.910156 C 747.773438 469.488281 748.695312 470.074219 749.484375 470.660156 C 750.277344 471.246094 750.933594 471.832031 751.464844 472.417969 C 751.984375 473 752.386719 473.59375 752.652344 474.179688 C 752.917969 474.773438 753.042969 475.367188 753.042969 475.953125 Z M 753.042969 475.953125 " fill-opacity="1" fill-rule="nonzero"/><path fill="#126ba5" d="M 53.292969 387.46875 L 53.292969 474.109375 L 219.957031 338.660156 L 535.046875 474.109375 L 698.066406 352.082031 L 712.660156 387.46875 L 752.804688 264.222656 L 628.714844 284.96875 L 661.566406 299.609375 L 535.046875 392.355469 L 219.957031 254.464844 Z M 53.292969 387.46875 " fill-opacity="1" fill-rule="nonzero"/><g clip-path="url(#id1)"><path fill="#8fc549" d="M 435.683594 41.996094 L 435.683594 332.789062 L 529.351562 370.53125 L 529.351562 41.996094 Z M 435.683594 41.996094 " fill-opacity="1" fill-rule="nonzero"/></g><path fill="#e75766" d="M 334.066406 117.09375 L 334.066406 287.6875 L 421.886719 323.121094 L 421.886719 117.09375 Z M 334.066406 117.09375 " fill-opacity="1" fill-rule="nonzero"/><path fill="#8fc549" d="M 225.867188 161.101562 L 225.867188 240.851562 L 319.535156 278.628906 L 319.535156 161.101562 Z M 225.867188 161.101562 " fill-opacity="1" fill-rule="nonzero"/><path fill="#126ba5" d="M 214.566406 586.082031 L 174.839844 584.398438 C 172.960938 584.398438 166.761719 595.644531 156.242188 618.132812 C 145.726562 640.441406 136.613281 662.085938 128.910156 683.082031 C 121.210938 704.074219 117.359375 719.253906 117.359375 728.625 C 117.359375 737.808594 120.269531 742.40625 126.09375 742.40625 C 132.105469 742.40625 139.621094 736.308594 148.636719 724.132812 C 149.578125 723 150.515625 722.4375 151.453125 722.4375 C 152.390625 722.4375 152.859375 723.28125 152.859375 724.972656 C 152.859375 726.65625 151.550781 729.746094 148.917969 734.246094 C 146.472656 738.746094 143.191406 743.617188 139.058594 748.871094 C 134.921875 753.925781 129.570312 758.425781 123 762.367188 C 116.421875 766.488281 109.65625 768.550781 102.710938 768.550781 C 92.378906 768.550781 87.210938 761.425781 87.210938 747.179688 C 87.210938 729.5625 96.140625 699.574219 113.980469 657.21875 C 126.753906 627.414062 138.488281 602.671875 149.199219 582.988281 L 145.535156 582.988281 L 116.515625 582.425781 C 100.359375 582.425781 86.273438 584.488281 74.253906 588.609375 C 67.675781 590.863281 62.421875 594.234375 58.476562 598.734375 C 54.722656 603.042969 52.84375 608.296875 52.84375 614.484375 L 55.097656 626.292969 C 55.097656 628.160156 54.160156 629.097656 52.273438 629.097656 C 49.835938 629.097656 47.863281 626.757812 46.363281 622.070312 C 44.863281 617.195312 44.109375 612.984375 44.109375 609.421875 C 44.109375 600.613281 46.175781 593.109375 50.308594 586.925781 C 54.441406 580.742188 60.070312 576.054688 67.210938 572.871094 C 80.738281 566.871094 95.667969 563.871094 112.007812 563.871094 C 128.351562 563.871094 146.847656 564.90625 167.515625 566.964844 C 188.171875 568.835938 206.960938 569.773438 223.863281 569.773438 C 240.765625 569.773438 251.757812 567.152344 256.828125 561.90625 C 257.386719 563.21875 257.667969 564.527344 257.667969 565.84375 C 257.667969 572.027344 253.730469 576.996094 245.835938 580.742188 C 237.949219 584.304688 227.519531 586.082031 214.566406 586.082031 Z M 231.285156 649.339844 L 245.652344 649.621094 L 248.476562 649.621094 C 245.652344 651.683594 241.617188 657.777344 236.355469 667.894531 C 231.285156 678.019531 227.433594 685.703125 224.800781 690.949219 C 222.363281 696.011719 219.546875 702.945312 216.355469 711.761719 C 213.347656 720.375 211.84375 727.402344 211.84375 732.84375 C 211.84375 738.28125 213.722656 740.992188 217.476562 740.992188 C 219.925781 740.808594 223.300781 739.125 227.625 735.933594 C 232.132812 732.5625 235.792969 729.097656 238.609375 725.535156 C 241.617188 721.78125 244.808594 717.09375 248.1875 711.480469 C 251.757812 705.664062 254.765625 700.699219 257.203125 696.574219 C 259.835938 692.265625 261.335938 690.109375 261.710938 690.109375 C 263.027344 690.109375 263.6875 691.890625 263.6875 695.453125 C 263.6875 698.820312 262.746094 702.101562 260.871094 705.285156 C 252.792969 718.597656 246.125 728.816406 240.863281 735.933594 C 235.609375 743.054688 229.222656 749.617188 221.703125 755.617188 C 214.378906 761.425781 207.714844 764.332031 201.707031 764.332031 C 190.996094 764.332031 185.644531 756.460938 185.644531 740.714844 C 185.644531 730.035156 187.707031 717.945312 191.839844 704.445312 C 195.976562 690.949219 202.074219 677.921875 210.152344 665.367188 C 203.582031 670.613281 197.003906 673.238281 190.433594 673.238281 C 188.363281 673.238281 186.207031 672.773438 183.953125 671.832031 C 170.617188 698.074219 163.382812 711.191406 162.261719 711.191406 C 161.320312 711.191406 160.847656 709.699219 160.847656 706.699219 C 160.847656 703.515625 161.980469 699.199219 164.234375 693.765625 C 166.671875 688.144531 169.207031 682.800781 171.839844 677.738281 C 174.65625 672.675781 176.15625 669.867188 176.347656 669.308594 C 169.585938 665.929688 166.199219 660.492188 166.199219 652.996094 C 166.199219 649.25 167.328125 645.875 169.585938 642.875 C 172.023438 639.875 175.3125 638.382812 179.445312 638.382812 C 183.574219 638.382812 186.960938 639.6875 189.582031 642.3125 C 189.214844 643.433594 189.023438 645.128906 189.023438 647.375 C 189.023438 652.4375 190.8125 656.464844 194.382812 659.464844 C 198.136719 662.269531 202.644531 663.683594 207.898438 663.683594 C 209.40625 663.683594 210.53125 663.585938 211.285156 663.402344 C 217.855469 654.023438 224.519531 649.339844 231.285156 649.339844 Z M 365.65625 649.902344 L 379.742188 650.183594 L 382.566406 650.183594 C 376.367188 655.242188 368.761719 668.085938 359.746094 688.703125 C 350.726562 709.128906 346.21875 724.035156 346.21875 733.40625 C 346.21875 738.28125 347.910156 740.714844 351.289062 740.714844 C 362.183594 740.714844 376.085938 724.691406 392.988281 692.636719 C 393.742188 691.328125 394.402344 690.671875 394.960938 690.671875 C 396.085938 690.671875 396.65625 692.449219 396.65625 696.011719 C 396.65625 699.390625 395.714844 702.664062 393.839844 705.855469 C 370.734375 744.652344 351.386719 764.050781 335.796875 764.050781 C 325.648438 764.050781 320.578125 756.269531 320.578125 740.714844 C 320.578125 729.097656 322.554688 717.664062 326.5 706.417969 C 305.089844 744.273438 285.265625 763.207031 267.046875 763.207031 C 254.46875 763.207031 248.171875 754.582031 248.171875 737.34375 C 248.171875 724.21875 250.984375 710.910156 256.625 697.417969 C 262.449219 683.921875 270.714844 672.492188 281.414062 663.121094 C 292.125 653.558594 303.859375 648.777344 316.640625 648.777344 C 322.648438 648.777344 328.28125 650.183594 333.542969 652.996094 C 338.796875 655.621094 342.273438 659.929688 343.964844 665.929688 C 346.035156 661.621094 349.226562 657.867188 353.542969 654.683594 C 357.867188 651.496094 361.902344 649.902344 365.65625 649.902344 Z M 342.273438 668.457031 C 340.394531 662.464844 335.980469 659.464844 329.035156 659.464844 C 316.640625 659.464844 304.617188 668.085938 292.96875 685.328125 C 281.328125 702.382812 275.503906 717.664062 275.503906 731.160156 C 275.503906 736.964844 277.757812 739.871094 282.265625 739.871094 C 287.152344 739.871094 292.878906 736.871094 299.449219 730.878906 C 306.027344 724.691406 311.941406 717.472656 317.203125 709.226562 C 328.84375 690.855469 337.203125 677.273438 342.273438 668.457031 Z M 495.730469 690.390625 C 496.851562 690.390625 497.421875 692.171875 497.421875 695.730469 C 497.421875 699.292969 495.828125 703.699219 492.632812 708.945312 C 489.625 714.191406 487.1875 718.226562 485.308594 721.035156 C 483.617188 723.65625 480.609375 727.972656 476.292969 733.964844 C 471.96875 739.96875 468.214844 744.273438 465.019531 746.898438 C 461.828125 749.523438 457.792969 752.617188 452.90625 756.179688 C 444.644531 762.171875 433.839844 765.171875 420.503906 765.171875 C 407.355469 765.171875 397.777344 761.890625 391.769531 755.335938 C 385.945312 748.589844 383.03125 739.871094 383.03125 729.183594 C 383.03125 709.507812 389.980469 691.511719 403.882812 675.210938 C 417.96875 658.71875 434.496094 650.46875 453.46875 650.46875 C 461.925781 650.46875 468.679688 652.71875 473.757812 657.21875 C 478.828125 661.523438 481.363281 666.773438 481.363281 672.957031 C 481.363281 678.957031 479.667969 684.203125 476.292969 688.703125 C 472.90625 693.207031 469.054688 695.453125 464.738281 695.453125 C 456.285156 695.453125 452.058594 691.984375 452.058594 685.046875 C 452.058594 682.800781 454.40625 680.640625 459.109375 678.582031 C 460.984375 677.835938 462.671875 676.421875 464.171875 674.359375 C 465.679688 672.300781 466.425781 669.585938 466.425781 666.210938 C 466.425781 661.339844 463.792969 658.902344 458.539062 658.902344 C 447.265625 658.902344 436.09375 667.050781 425.011719 683.363281 C 413.925781 699.671875 408.390625 715.507812 408.390625 730.878906 C 408.390625 746.054688 415.058594 753.644531 428.390625 753.644531 C 446.988281 753.644531 465.109375 739.308594 482.765625 710.628906 C 486.335938 705.007812 489.246094 700.234375 491.503906 696.292969 C 493.949219 692.355469 495.351562 690.390625 495.730469 690.390625 Z M 610.230469 706.417969 C 603.652344 717.472656 596.988281 727.5 590.222656 736.5 C 575.769531 755.242188 561.488281 764.613281 547.402344 764.613281 C 539.699219 764.613281 533.875 760.769531 529.9375 753.082031 C 526.175781 745.398438 524.296875 736.871094 524.296875 727.5 C 524.296875 708.761719 527.113281 699.390625 532.753906 699.390625 C 541.578125 699.390625 549.742188 697.417969 557.261719 693.484375 C 564.777344 689.363281 568.53125 684.019531 568.53125 677.457031 C 568.53125 672.210938 565.523438 669.585938 559.515625 669.585938 C 546.558594 669.585938 532.191406 683.644531 516.410156 711.761719 C 514.910156 714.570312 511.71875 721.128906 506.832031 731.4375 C 502.132812 741.554688 497.910156 749.242188 494.148438 754.496094 C 490.578125 759.742188 487.011719 762.367188 483.449219 762.367188 L 466.257812 762.367188 C 472.082031 751.496094 480.632812 729.5625 491.894531 696.574219 C 503.351562 663.402344 511.808594 641.1875 517.253906 629.941406 C 517.445312 629.566406 518.570312 627.132812 520.632812 622.632812 C 522.886719 618.132812 524.394531 615.042969 525.148438 613.351562 C 526.085938 611.667969 527.769531 608.480469 530.21875 603.796875 C 532.65625 599.113281 534.628906 595.644531 536.128906 593.390625 C 537.628906 591.144531 539.699219 587.960938 542.332031 583.835938 C 544.960938 579.523438 547.3125 576.242188 549.375 573.996094 C 551.4375 571.746094 553.882812 569.125 556.699219 566.125 C 559.515625 562.941406 562.148438 560.589844 564.59375 559.097656 C 570.972656 555.34375 576.796875 553.472656 582.058594 553.472656 C 592.390625 553.472656 597.546875 558.15625 597.546875 567.527344 C 597.546875 580.644531 589.566406 598.078125 573.601562 619.816406 C 557.832031 641.375 539.980469 661.804688 520.070312 681.117188 L 515 695.171875 C 524.015625 683.546875 534.253906 673.429688 545.707031 664.804688 C 557.171875 655.996094 567.691406 651.59375 577.269531 651.59375 C 582.714844 651.59375 586.945312 652.902344 589.945312 655.523438 C 593.136719 658.148438 594.734375 661.710938 594.734375 666.210938 C 594.734375 676.519531 590.136719 684.863281 580.925781 691.230469 C 571.910156 697.417969 561.488281 701.453125 549.65625 703.320312 C 551.347656 722.816406 554.066406 734.71875 557.832031 739.027344 C 559.707031 741.089844 562.050781 742.117188 564.867188 742.117188 C 567.691406 742.117188 571.539062 740.433594 576.425781 737.0625 C 581.304688 733.6875 585.25 730.035156 588.257812 726.097656 C 591.453125 721.972656 594.734375 717.09375 598.117188 711.480469 C 601.679688 705.855469 604.6875 700.980469 607.136719 696.855469 C 609.765625 692.730469 611.265625 690.671875 611.644531 690.671875 C 612.765625 690.671875 613.328125 692.546875 613.328125 696.292969 C 613.328125 699.855469 612.292969 703.226562 610.230469 706.417969 Z M 582.621094 560.78125 C 572.101562 560.78125 553.691406 594.515625 527.402344 661.992188 C 551.4375 633.878906 568.347656 610.167969 578.109375 590.863281 C 583.742188 580.742188 586.566406 572.398438 586.566406 565.84375 C 586.566406 562.464844 585.25 560.78125 582.621094 560.78125 Z M 657.042969 566.125 L 720.714844 566.125 C 707.75 576.054688 689.910156 606.796875 667.183594 658.339844 C 661.359375 671.457031 654.691406 688.703125 647.175781 710.066406 C 639.851562 731.246094 636.191406 746.714844 636.191406 756.460938 C 636.191406 759.085938 636.5625 761.050781 637.316406 762.367188 L 600.964844 762.367188 C 606.230469 739.6875 617.308594 708.199219 634.21875 667.894531 C 656.761719 614.289062 671.3125 583.835938 677.882812 576.519531 C 661.917969 576.898438 645.675781 580.179688 629.148438 586.363281 C 612.808594 592.363281 603.316406 599.578125 600.683594 608.015625 C 600.5 608.578125 600.125 608.859375 599.5625 608.859375 C 597.871094 608.859375 597.027344 607.640625 597.027344 605.199219 C 597.027344 604.824219 597.21875 603.894531 597.589844 602.394531 C 601.160156 592.085938 606.324219 584.117188 613.089844 578.496094 C 619.851562 572.871094 626.421875 569.40625 632.808594 568.089844 C 639.386719 566.773438 647.457031 566.125 657.042969 566.125 Z M 766.714844 601.261719 C 757.511719 607.640625 747.179688 623.949219 735.722656 650.183594 L 764.179688 650.183594 L 764.460938 650.46875 C 764.460938 651.402344 763.425781 653.09375 761.363281 655.523438 C 759.292969 657.777344 757.511719 658.902344 756.003906 658.902344 L 731.777344 658.902344 C 716.9375 695.636719 709.515625 719.253906 709.515625 729.746094 C 709.515625 736.871094 711.769531 740.433594 716.277344 740.433594 C 722.855469 740.433594 730.558594 734.808594 739.382812 723.5625 C 741.453125 721.128906 744.171875 717.007812 747.558594 711.191406 C 756.199219 697.328125 760.707031 690.390625 761.082031 690.390625 C 762.207031 690.390625 762.769531 691.890625 762.769531 694.890625 C 762.582031 702.015625 754.785156 715.882812 739.382812 736.5 C 734.3125 743.25 728.207031 749.523438 721.074219 755.335938 C 713.9375 761.144531 707.453125 764.050781 701.628906 764.050781 C 690.921875 764.050781 685.570312 756.558594 685.570312 741.554688 C 685.570312 729 688.578125 714.570312 694.585938 698.257812 L 694.585938 697.976562 C 691.015625 704.539062 687.917969 709.410156 685.289062 712.601562 C 682.851562 715.789062 681.4375 717.375 681.0625 717.375 C 680.316406 717.375 679.9375 716.253906 679.9375 714.007812 C 679.9375 711.566406 681.15625 707.726562 683.597656 702.480469 C 686.226562 697.234375 689.707031 690.390625 694.023438 681.957031 C 698.535156 673.519531 702.199219 665.832031 705.015625 658.902344 L 686.140625 658.902344 C 685.570312 658.902344 685.289062 658.523438 685.289062 657.777344 C 685.289062 656.839844 685.945312 655.339844 687.261719 653.277344 C 688.769531 651.214844 689.894531 650.183594 690.648438 650.183594 L 712.058594 650.183594 C 725.578125 617.765625 739.285156 601.550781 753.1875 601.550781 C 761.265625 601.550781 765.777344 601.453125 766.714844 601.261719 Z M 766.714844 601.261719 " fill-opacity="1" fill-rule="nonzero"/></svg>